<svg xmlns="http://www.w3.org/2000/svg" xmlns:xlink="http://www.w3.org/1999/xlink" width="1920" zoomAndPan="magnify" viewBox="0 0 1440 809.999993" height="1080" preserveAspectRatio="xMidYMid meet" version="1.0"><defs><clipPath id="60eb6156f2"><path d="M 412.550781 268 L 1027.550781 268 L 1027.550781 542.300781 L 412.550781 542.300781 Z M 412.550781 268 " clip-rule="nonzero"/></clipPath><clipPath id="adcea24b02"><path d="M 412.550781 267.800781 L 1027.550781 267.800781 L 1027.550781 542.300781 L 412.550781 542.300781 Z M 412.550781 267.800781 " clip-rule="nonzero"/></clipPath></defs><g clip-path="url(#60eb6156f2)"><path fill="#aa542b" d="M 741.398438 542.082031 C 734.957031 542.082031 728.300781 541.125 721.054688 539.148438 C 719.433594 538.703125 717.769531 537.878906 716.25 536.765625 C 714.582031 535.554688 712.777344 534.964844 710.722656 534.964844 C 710.171875 534.964844 709.613281 535.007812 709.046875 535.089844 C 706.8125 535.390625 704.445312 535.738281 702.183594 536.386719 C 696.871094 537.933594 691.324219 538.660156 685.957031 539.367188 C 684.351562 539.578125 682.742188 539.789062 681.140625 540.023438 C 676.132812 540.757812 670.835938 541.132812 665.394531 541.132812 C 662.785156 541.132812 660.078125 541.046875 657.351562 540.878906 C 651.324219 540.511719 645.222656 539.605469 639.324219 538.730469 L 635.167969 538.121094 C 633.136719 537.824219 631.082031 537.410156 629.097656 537.011719 C 627.085938 536.605469 625.007812 536.183594 622.9375 535.886719 C 621.636719 535.699219 620.289062 535.609375 618.8125 535.609375 C 616.117188 535.609375 613.457031 535.910156 610.507812 536.273438 C 604 537.074219 596.300781 537.890625 588.550781 537.890625 C 582.953125 537.890625 577.84375 537.476562 572.925781 536.625 C 557.0625 533.886719 542.316406 528.875 529.980469 524.339844 C 521.023438 521.023438 513.625 518.738281 506.695312 517.148438 C 501.792969 516.03125 497.921875 514.734375 494.503906 513.070312 C 491.828125 511.769531 488.902344 511.097656 485.300781 510.960938 C 479.664062 510.785156 473.796875 510.074219 469.035156 506.101562 C 466.128906 503.640625 463.898438 501.324219 462.21875 499.015625 C 458.683594 494.1875 454.363281 490.796875 449.378906 488.9375 C 442.695312 486.464844 437.175781 482.636719 430.648438 477.894531 C 425.363281 474.066406 422.050781 469.4375 420.515625 463.746094 C 419.902344 461.414062 418.988281 459.117188 418.105469 456.898438 C 417.832031 456.214844 417.5625 455.53125 417.296875 454.84375 C 414.867188 448.496094 414.320312 442.457031 415.628906 436.382812 C 415.753906 435.78125 415.828125 435.167969 415.898438 434.550781 C 415.980469 433.847656 416.058594 433.144531 416.222656 432.460938 C 416.902344 429.53125 416.511719 426.71875 415.058594 424.105469 C 412.707031 419.9375 412.292969 415.425781 413.785156 410.308594 C 413.960938 409.703125 414.097656 409.085938 414.238281 408.464844 C 414.390625 407.789062 414.542969 407.109375 414.746094 406.445312 C 416.609375 400.539062 416.773438 395.835938 415.277344 391.199219 C 414.761719 389.636719 414.855469 387.453125 415.523438 385.5 C 416.917969 381.34375 418.804688 376.601562 422.230469 372.90625 C 427.515625 367.191406 429.835938 360.027344 429.136719 351.613281 C 428.507812 343.980469 430.828125 337.371094 436.433594 330.808594 C 442.554688 323.628906 450.605469 318.722656 457.671875 314.691406 C 461.160156 312.707031 464.640625 310.582031 468.003906 308.523438 L 468.765625 308.058594 C 477.515625 302.730469 485.84375 299.808594 494.226562 299.125 C 503.929688 298.3125 514.332031 297.171875 524.664062 294.371094 C 527.707031 293.542969 530.515625 293.136719 533.253906 293.136719 C 533.816406 293.136719 534.382812 293.15625 534.949219 293.191406 C 535.640625 293.234375 536.328125 293.257812 537.007812 293.257812 C 543.855469 293.257812 550.605469 291.027344 557.070312 286.628906 C 563.902344 281.984375 571.625 278.933594 579.09375 275.976562 L 579.839844 275.683594 C 581.117188 275.175781 582.554688 274.992188 583.949219 274.8125 C 584.683594 274.71875 585.421875 274.625 586.144531 274.484375 C 587.734375 274.1875 589.335938 273.882812 590.933594 273.574219 C 592.746094 273.226562 594.558594 272.878906 596.371094 272.542969 L 598.796875 272.082031 C 601.039062 271.648438 603.359375 271.203125 605.648438 270.886719 C 612.765625 269.945312 619.191406 269.164062 625.753906 269.164062 C 626.816406 269.164062 627.875 269.1875 628.933594 269.230469 C 630.292969 269.28125 631.652344 269.414062 633.007812 269.542969 C 634.429688 269.679688 635.898438 269.824219 637.347656 269.867188 C 638.691406 269.898438 640.039062 269.960938 641.390625 270.019531 C 643.351562 270.109375 645.316406 270.199219 647.265625 270.199219 C 649.332031 270.199219 651.128906 270.097656 652.761719 269.882812 C 654.875 269.613281 657.019531 269.472656 659.148438 269.472656 C 664.382812 269.472656 669.660156 270.28125 675.28125 271.945312 C 679.390625 273.167969 682.75 274.074219 685.851562 274.789062 C 689.335938 275.578125 692.566406 275.957031 695.738281 275.957031 C 699.882812 275.957031 703.746094 275.308594 707.546875 273.964844 C 712.492188 272.226562 717.828125 271.449219 724.859375 271.449219 C 727.875 271.449219 730.945312 271.589844 734.085938 271.75 C 741.011719 272.097656 747.824219 272.550781 755.929688 273.117188 C 759.183594 273.339844 762.535156 273.570312 765.796875 274.015625 C 768.234375 274.339844 770.4375 274.5 772.539062 274.5 C 774.742188 274.5 776.78125 274.328125 778.769531 273.976562 C 781.511719 273.464844 784.75 272.949219 787.992188 272.949219 C 789.414062 272.949219 790.738281 273.042969 792.039062 273.238281 C 792.464844 273.304688 792.882812 273.335938 793.292969 273.335938 C 795.066406 273.335938 796.730469 272.765625 798.34375 272.210938 L 800.585938 271.457031 C 803.578125 270.460938 806.675781 269.429688 809.792969 268.671875 C 811.585938 268.230469 813.304688 268.007812 814.894531 268.007812 C 818.582031 268.007812 821.769531 269.15625 824.652344 271.515625 C 826.382812 272.945312 828.492188 274.007812 830.6875 275.0625 C 833.28125 276.285156 836.011719 276.878906 839.039062 276.878906 C 839.335938 276.878906 839.628906 276.875 839.925781 276.863281 C 840.609375 276.835938 841.292969 276.820312 841.976562 276.820312 C 845.0625 276.820312 848.136719 277.074219 851.804688 277.457031 C 854.847656 277.753906 857.738281 278.867188 860.398438 280.773438 C 863.566406 283.050781 866.855469 284.203125 870.171875 284.203125 C 872.140625 284.203125 874.144531 283.792969 876.125 282.988281 C 880.519531 281.203125 885.222656 280.523438 889.773438 279.867188 L 891.582031 279.601562 C 892.648438 279.445312 893.71875 279.367188 894.757812 279.367188 C 897.738281 279.367188 900.550781 280.011719 903.121094 281.28125 C 908.554688 283.980469 914.945312 287.214844 921.175781 290.75 C 925.441406 293.167969 928.964844 294.246094 932.597656 294.246094 C 933.710938 294.246094 934.847656 294.136719 935.984375 293.925781 C 937.375 293.664062 938.753906 293.535156 940.070312 293.535156 C 945.6875 293.535156 950.507812 295.929688 954.011719 300.457031 C 957.769531 305.285156 962.765625 307.597656 967.984375 309.730469 C 970.601562 310.804688 973.394531 311.996094 976.089844 313.40625 C 979.140625 315.003906 981.296875 317.296875 982.6875 320.40625 C 984.433594 324.414062 987.273438 326.667969 991.375 327.300781 C 996.671875 328.113281 1000.726562 331.269531 1004.527344 337.535156 C 1007.972656 343.265625 1009.777344 350.042969 1010.203125 358.863281 C 1010.234375 359.445312 1010.238281 360.023438 1010.246094 360.605469 C 1010.25 361.191406 1010.253906 361.777344 1010.289062 362.363281 C 1010.539062 366.648438 1012.058594 369.828125 1014.925781 372.089844 C 1017.628906 374.203125 1019.632812 377.140625 1021.246094 381.332031 C 1025.296875 391.8125 1027.242188 401.625 1027.183594 411.335938 C 1027.183594 413.003906 1026.972656 414.671875 1026.753906 416.242188 C 1025.460938 425.257812 1022.933594 434.246094 1019.242188 442.953125 C 1018.207031 445.421875 1017.15625 448.386719 1017.199219 451.671875 C 1017.238281 452.917969 1016.992188 454.269531 1016.5 455.480469 C 1014.128906 461.234375 1011.054688 467.679688 1004.519531 471.296875 C 1003.304688 471.96875 1002.097656 472.660156 1000.886719 473.351562 C 998.25 474.855469 995.523438 476.414062 992.765625 477.777344 C 986.890625 480.683594 982.394531 484.386719 979.023438 489.097656 C 974.242188 495.792969 967.585938 500.558594 959.242188 503.261719 C 949.890625 506.261719 940.457031 508.476562 931.210938 509.84375 C 923.839844 510.929688 916.164062 513.066406 907.742188 516.382812 C 904.671875 517.609375 901.585938 518.835938 898.476562 520.003906 C 895.105469 521.265625 891.636719 521.953125 887.863281 522.097656 C 881.386719 522.355469 876.089844 523.265625 871.191406 524.953125 C 864.855469 527.125 858.339844 528.195312 852.800781 528.953125 C 846.679688 529.824219 840.519531 531.226562 835.226562 532.476562 L 834.8125 532.574219 C 827.421875 534.320312 819.785156 536.125 812.035156 536.125 C 811.277344 536.125 810.515625 536.109375 809.753906 536.074219 C 809.253906 536.050781 808.75 536.046875 808.25 536.046875 C 807.753906 536.046875 805.910156 536.074219 805.488281 536.074219 L 805.488281 535.644531 L 805.285156 535.644531 C 804.808594 535.644531 804.328125 535.625 803.847656 535.605469 C 803.359375 535.585938 802.875 535.566406 802.390625 535.566406 C 801.851562 535.566406 801.308594 535.589844 800.777344 535.667969 C 799.140625 535.890625 797.484375 536.007812 795.847656 536.007812 C 792.765625 536.007812 789.636719 535.597656 786.535156 534.789062 C 785.335938 534.472656 784.074219 534.308594 782.785156 534.308594 C 780.664062 534.308594 778.398438 534.730469 775.660156 535.632812 C 767.9375 538.199219 759.558594 540.113281 750.042969 541.476562 C 747.222656 541.878906 744.316406 542.082031 741.398438 542.082031 Z M 741.398438 542.082031 " fill-opacity="1" fill-rule="nonzero"/></g><path fill="#8c3a13" d="M 566.738281 333.425781 C 561.402344 362.6875 614.921875 352.246094 622.066406 333.304688 C 626.953125 320.34375 613.460938 311.3125 602.59375 308.757812 C 590.167969 305.835938 575.085938 308.640625 565.714844 317.742188 C 556.964844 326.242188 556.199219 339.824219 566.648438 347.234375 C 577.113281 354.65625 593.265625 352.609375 604.660156 348.609375 C 614.941406 345 629.59375 337.835938 625.722656 324.359375 C 622.320312 312.523438 606.078125 308.453125 595.367188 309.0625 C 584.339844 309.695312 566.222656 316.054688 566.894531 329.894531 C 567.785156 348.15625 589.40625 341.394531 598.167969 334.460938 C 608.484375 326.292969 593.921875 311.902344 583.699219 319.992188 C 582.789062 320.652344 581.8125 321.167969 580.769531 321.53125 C 582.808594 323.101562 584.84375 324.667969 586.882812 326.234375 C 586.574219 325.734375 586.265625 325.230469 585.957031 324.730469 C 586.300781 327.359375 586.644531 329.984375 586.988281 332.613281 C 587.335938 330.234375 594.84375 329.566406 596.738281 329.492188 C 598.585938 329.417969 600.367188 329.589844 602.160156 330.023438 C 605.675781 330.867188 605.6875 332.875 606.410156 328.316406 C 607.355469 322.402344 603.6875 327.144531 600.703125 328.359375 C 598.78125 329.140625 596.730469 329.761719 594.714844 330.261719 C 590.386719 331.339844 585.292969 332.128906 580.867188 331.296875 C 579.664062 331.070312 579.375 332.613281 581.40625 331.410156 C 583.175781 330.359375 584.867188 329.503906 586.859375 328.929688 C 591.621094 327.5625 595.328125 328.945312 599.9375 329.253906 C 600.886719 329.683594 601.832031 330.117188 602.78125 330.542969 C 602.652344 328.933594 602.523438 327.324219 602.394531 325.710938 C 602.003906 325.523438 597.789062 328.433594 597.140625 328.71875 C 594.703125 329.796875 592.003906 330.503906 589.367188 330.894531 C 588 331.097656 583.386719 330.339844 585.109375 332.773438 C 585.453125 335.402344 585.796875 338.03125 586.140625 340.660156 C 586.25 340.0625 586.355469 339.460938 586.464844 338.863281 C 588.816406 325.988281 569.105469 320.46875 566.738281 333.425781 Z M 566.738281 333.425781 " fill-opacity="1" fill-rule="nonzero"/><path fill="#8c3a13" d="M 699.15625 331.300781 C 701.417969 335.167969 705.25 338.0625 709.652344 339.011719 C 712.15625 339.554688 715.082031 339.65625 717.570312 338.914062 C 721.808594 337.648438 724.375 335.355469 726.097656 331.195312 C 727.027344 328.949219 728.199219 326.71875 728.199219 324.230469 C 728.199219 320.269531 725.636719 316.339844 722.21875 314.417969 C 716.796875 311.367188 710.628906 312.273438 706.054688 316.367188 C 702.257812 319.765625 702.308594 325.984375 705.253906 329.800781 C 708.496094 334 713.808594 334.714844 718.449219 332.4375 C 720.078125 331.636719 721.707031 330.839844 723.332031 330.039062 C 728.148438 327.675781 729.847656 320.453125 727.003906 316.042969 C 723.820312 311.109375 718.15625 309.84375 713.007812 312.371094 C 711.378906 313.171875 709.753906 313.96875 708.125 314.769531 C 712.257812 320.125 716.386719 325.480469 720.519531 330.835938 C 716.917969 334.0625 711.796875 333.503906 709.136719 329.394531 C 708.792969 326.765625 708.449219 324.136719 708.105469 321.511719 C 707.527344 322.925781 706.949219 324.339844 706.371094 325.753906 C 707.9375 323.714844 709.503906 321.675781 711.070312 319.640625 C 712.777344 319.011719 713.132812 318.859375 712.132812 319.179688 C 712.710938 319.113281 713.289062 319.046875 713.871094 318.980469 C 713.535156 319.003906 713.203125 319.003906 712.867188 318.976562 C 714.664062 319.28125 715.15625 319.328125 714.355469 319.113281 C 713.585938 318.886719 714.011719 319.078125 715.628906 319.695312 C 714.96875 319.292969 715.035156 319.382812 715.824219 319.953125 C 716.570312 320.578125 716.660156 320.632812 716.09375 320.117188 C 717.121094 321.574219 717.363281 321.863281 716.820312 320.972656 C 714.113281 316.351562 707.46875 314.308594 702.824219 317.300781 C 698.171875 320.304688 696.261719 326.355469 699.15625 331.300781 Z M 699.15625 331.300781 " fill-opacity="1" fill-rule="nonzero"/><path fill="#8c3a13" d="M 722.355469 411.257812 C 723.945312 411.027344 725.539062 410.800781 727.128906 410.570312 C 729.484375 410.234375 732.101562 407.816406 733.242188 405.871094 C 734.523438 403.675781 735.070312 400.445312 734.273438 397.984375 C 733.472656 395.511719 731.9375 393.121094 729.574219 391.871094 C 728.757812 391.527344 727.945312 391.183594 727.128906 390.839844 C 725.316406 390.351562 723.503906 390.351562 721.691406 390.839844 C 720.097656 391.070312 718.507812 391.296875 716.914062 391.527344 C 714.5625 391.863281 711.941406 394.277344 710.800781 396.226562 C 709.519531 398.417969 708.976562 401.652344 709.769531 404.109375 C 710.570312 406.585938 712.105469 408.976562 714.472656 410.222656 C 715.285156 410.570312 716.101562 410.910156 716.914062 411.253906 C 718.726562 411.742188 720.542969 411.742188 722.355469 411.257812 Z M 722.355469 411.257812 " fill-opacity="1" fill-rule="nonzero"/><path fill="#8c3a13" d="M 789.035156 374.886719 C 789.015625 374.835938 788.996094 374.789062 788.972656 374.742188 C 789.316406 375.554688 789.660156 376.371094 790.003906 377.183594 C 789.957031 377.039062 789.925781 376.910156 789.902344 376.761719 C 790.023438 377.667969 790.144531 378.574219 790.269531 379.480469 C 790.257812 379.390625 790.257812 379.300781 790.269531 379.210938 C 790.144531 380.117188 790.023438 381.023438 789.902344 381.929688 C 789.921875 381.792969 789.949219 381.675781 789.992188 381.546875 C 789.648438 382.359375 789.304688 383.175781 788.960938 383.988281 C 789.03125 383.820312 789.117188 383.675781 789.226562 383.527344 C 788.691406 384.214844 788.160156 384.90625 787.625 385.597656 C 787.746094 385.449219 787.878906 385.320312 788.023438 385.199219 C 787.335938 385.730469 786.644531 386.265625 785.953125 386.796875 C 786.195312 386.617188 786.449219 386.472656 786.726562 386.351562 C 785.910156 386.695312 785.097656 387.039062 784.28125 387.382812 C 784.570312 387.269531 784.855469 387.195312 785.160156 387.148438 C 784.253906 387.269531 783.347656 387.390625 782.441406 387.511719 C 782.6875 387.488281 782.921875 387.484375 783.167969 387.511719 C 782.261719 387.390625 781.355469 387.265625 780.449219 387.144531 C 780.632812 387.175781 780.804688 387.21875 780.976562 387.285156 C 780.164062 386.941406 779.347656 386.597656 778.535156 386.253906 C 778.660156 386.3125 778.765625 386.375 778.878906 386.453125 C 778.1875 385.917969 777.496094 385.386719 776.808594 384.851562 C 776.914062 384.941406 777 385.023438 777.089844 385.132812 C 776.554688 384.441406 776.023438 383.75 775.488281 383.0625 C 775.574219 383.183594 775.636719 383.292969 775.695312 383.429688 C 775.351562 382.613281 775.007812 381.800781 774.664062 380.984375 C 774.699219 381.082031 774.730469 381.179688 774.75 381.28125 C 775.355469 383.738281 777.289062 386.132812 779.449219 387.394531 C 781.640625 388.679688 784.875 389.222656 787.332031 388.425781 C 789.808594 387.625 792.195312 386.09375 793.445312 383.726562 C 794.75 381.25 795.152344 378.59375 794.476562 375.84375 C 792.824219 369.128906 785.371094 365.601562 778.988281 367.597656 C 775.96875 368.539062 773.054688 370.496094 771.480469 373.308594 C 770.429688 375.1875 769.835938 377.046875 769.8125 379.210938 C 769.78125 381.761719 770.390625 382.953125 771.375 385.214844 C 772.015625 386.40625 772.894531 387.363281 774.007812 388.085938 C 774.996094 388.988281 776.15625 389.597656 777.484375 389.914062 C 779.933594 390.589844 783.195312 390.285156 785.367188 388.882812 C 787.550781 387.476562 789.476562 385.378906 790.070312 382.769531 C 790.191406 381.863281 790.3125 380.957031 790.433594 380.050781 C 790.425781 378.203125 789.960938 376.480469 789.035156 374.886719 Z M 789.035156 374.886719 " fill-opacity="1" fill-rule="nonzero"/><path fill="#8c3a13" d="M 782.828125 407.570312 C 777.636719 405.914062 772.273438 407.570312 768.386719 411.21875 C 763.09375 416.1875 765.304688 426.933594 772.902344 428.320312 C 779.363281 429.496094 785.933594 429.414062 792.140625 427.058594 C 797.128906 425.167969 801.097656 420.074219 799.285156 414.472656 C 797.710938 409.605469 792.058594 405.296875 786.703125 407.328125 C 785.824219 407.660156 784.945312 407.976562 784.039062 408.21875 C 783.4375 408.382812 782.828125 408.523438 782.214844 408.640625 C 783.234375 408.539062 783.367188 408.523438 782.613281 408.59375 C 781.675781 408.632812 780.746094 408.710938 779.804688 408.6875 C 779.335938 408.683594 778.871094 408.660156 778.402344 408.617188 C 779.570312 408.8125 779.546875 408.800781 778.339844 408.589844 C 779.84375 414.289062 781.351562 419.988281 782.855469 425.6875 C 781.773438 426.703125 779.089844 427.84375 777.390625 427.304688 C 782.492188 428.929688 788.78125 425.398438 789.972656 420.15625 C 791.246094 414.570312 788.289062 409.3125 782.828125 407.570312 Z M 782.828125 407.570312 " fill-opacity="1" fill-rule="nonzero"/><path fill="#8c3a13" d="M 863.351562 404.578125 C 866.613281 404.042969 871.984375 403.960938 876.28125 404.3125 C 881.628906 404.75 886.742188 399.292969 886.511719 394.082031 C 886.246094 388.164062 882.007812 384.320312 876.28125 383.851562 C 870.078125 383.34375 864.046875 383.84375 857.910156 384.847656 C 852.617188 385.714844 849.191406 392.5625 850.765625 397.433594 C 852.621094 403.167969 857.675781 405.507812 863.351562 404.578125 Z M 863.351562 404.578125 " fill-opacity="1" fill-rule="nonzero"/><path fill="#8c3a13" d="M 828.6875 418.808594 C 828.617188 418.820312 828.554688 418.839844 828.488281 418.859375 C 828.09375 418.964844 826.289062 419.730469 825.941406 419.929688 C 825.902344 419.953125 825.863281 419.980469 825.820312 420.003906 C 825.132812 420.535156 824.441406 421.070312 823.753906 421.601562 C 823.726562 421.621094 823.699219 421.644531 823.675781 421.667969 C 822.433594 422.816406 821.210938 424.929688 820.832031 426.570312 C 820.675781 427.238281 820.484375 428.699219 820.449219 429.390625 C 820.445312 429.449219 820.4375 429.503906 820.4375 429.5625 C 820.402344 430.554688 820.617188 431.570312 820.824219 432.535156 C 820.851562 432.648438 820.878906 432.757812 820.914062 432.871094 C 821.167969 433.640625 821.640625 434.6875 821.988281 435.425781 C 822.015625 435.484375 822.042969 435.542969 822.074219 435.605469 C 822.128906 435.710938 822.195312 435.804688 822.261719 435.90625 C 822.675781 436.511719 823.429688 437.484375 823.910156 438.039062 C 823.953125 438.085938 823.992188 438.132812 824.039062 438.179688 C 824.082031 438.226562 824.128906 438.265625 824.171875 438.304688 C 824.582031 438.675781 825.824219 439.652344 826.300781 439.949219 C 826.351562 439.980469 826.398438 440.015625 826.449219 440.042969 C 826.476562 440.058594 826.507812 440.074219 826.539062 440.085938 C 827.355469 440.429688 828.167969 440.773438 828.984375 441.117188 C 829.519531 441.285156 829.9375 441.28125 830.59375 441.367188 C 831.0625 441.429688 831.582031 441.558594 832.078125 441.554688 C 832.375 441.550781 834.5625 441.269531 834.863281 441.179688 C 834.914062 441.164062 834.96875 441.152344 835.023438 441.136719 C 835.496094 441 837.128906 440.289062 837.558594 440.058594 C 838.417969 439.605469 839.183594 438.949219 839.875 438.265625 C 840.875 437.335938 841.578125 436.238281 841.992188 434.972656 C 842.632812 433.753906 842.925781 432.4375 842.871094 431.03125 C 842.925781 429.621094 842.632812 428.308594 841.992188 427.085938 C 841.578125 425.820312 840.875 424.722656 839.875 423.796875 C 839.1875 423.261719 838.496094 422.730469 837.808594 422.195312 C 836.210938 421.269531 834.492188 420.804688 832.644531 420.796875 C 831.738281 420.921875 830.832031 421.042969 829.925781 421.164062 C 828.191406 421.652344 826.6875 422.527344 825.410156 423.796875 C 825.375 423.835938 825.332031 423.875 825.289062 423.90625 C 825.980469 423.375 826.667969 422.839844 827.359375 422.308594 C 827.296875 422.355469 827.242188 422.390625 827.171875 422.425781 C 827.988281 422.082031 828.800781 421.738281 829.617188 421.394531 C 829.550781 421.417969 829.492188 421.4375 829.425781 421.449219 C 830.332031 421.328125 831.238281 421.207031 832.144531 421.085938 C 832.078125 421.09375 832.019531 421.09375 831.953125 421.089844 C 832.859375 421.210938 833.765625 421.332031 834.671875 421.457031 C 834.582031 421.441406 834.503906 421.421875 834.421875 421.386719 C 835.234375 421.730469 836.050781 422.074219 836.863281 422.417969 C 836.78125 422.378906 836.703125 422.335938 836.625 422.28125 C 837.316406 422.816406 838.003906 423.347656 838.695312 423.882812 C 838.554688 423.773438 838.4375 423.648438 838.328125 423.507812 C 838.859375 424.199219 839.394531 424.886719 839.925781 425.578125 C 839.816406 425.425781 839.726562 425.269531 839.652344 425.097656 C 839.996094 425.910156 840.339844 426.726562 840.683594 427.539062 C 840.617188 427.371094 840.566406 427.203125 840.539062 427.023438 C 840.660156 427.929688 840.785156 428.835938 840.90625 429.742188 C 840.894531 429.621094 840.890625 429.507812 840.902344 429.390625 C 840.78125 430.296875 840.660156 431.203125 840.539062 432.109375 C 840.554688 432.019531 840.574219 431.9375 840.609375 431.855469 C 840.265625 432.671875 839.921875 433.484375 839.578125 434.300781 C 839.605469 434.238281 839.636719 434.1875 839.675781 434.136719 C 839.144531 434.824219 838.609375 435.515625 838.078125 436.207031 C 838.121094 436.15625 838.164062 436.113281 838.21875 436.070312 C 837.527344 436.605469 836.835938 437.136719 836.148438 437.671875 C 836.207031 437.628906 836.265625 437.597656 836.332031 437.570312 C 835.519531 437.914062 834.707031 438.257812 833.890625 438.601562 C 833.96875 438.574219 834.042969 438.554688 834.125 438.539062 C 835.457031 438.222656 836.617188 437.609375 837.601562 436.707031 C 838.71875 435.984375 839.59375 435.027344 840.238281 433.835938 C 840.984375 432.664062 841.390625 431.394531 841.453125 430.03125 C 841.757812 428.671875 841.695312 427.3125 841.269531 425.953125 C 840.925781 425.136719 840.582031 424.324219 840.238281 423.507812 C 839.328125 421.972656 838.105469 420.75 836.570312 419.839844 C 835.753906 419.496094 834.941406 419.152344 834.125 418.808594 C 832.3125 418.320312 830.5 418.320312 828.6875 418.808594 Z M 828.6875 418.808594 " fill-opacity="1" fill-rule="nonzero"/><path fill="#8c3a13" d="M 890.683594 440.828125 C 893.261719 441.371094 895.839844 441.914062 898.417969 442.453125 C 901.113281 443.023438 903.867188 442.847656 906.300781 441.421875 C 908.421875 440.183594 910.445312 437.746094 911 435.308594 C 912.167969 430.179688 909.457031 423.902344 903.855469 422.722656 C 901.277344 422.179688 898.699219 421.640625 896.121094 421.097656 C 893.425781 420.527344 890.667969 420.707031 888.238281 422.128906 C 886.117188 423.371094 884.09375 425.800781 883.539062 428.242188 C 882.371094 433.371094 885.082031 439.648438 890.683594 440.828125 Z M 890.683594 440.828125 " fill-opacity="1" fill-rule="nonzero"/><path fill="#8c3a13" d="M 578.304688 455.410156 C 580.371094 454.890625 582.4375 454.371094 584.503906 453.855469 C 589.695312 452.550781 593.320312 446.441406 591.648438 441.269531 C 589.910156 435.894531 584.628906 432.726562 579.066406 434.125 C 577 434.640625 574.933594 435.160156 572.863281 435.679688 C 567.671875 436.980469 564.046875 443.089844 565.722656 448.265625 C 567.460938 453.636719 572.742188 456.804688 578.304688 455.410156 Z M 578.304688 455.410156 " fill-opacity="1" fill-rule="nonzero"/><g clip-path="url(#adcea24b02)"><path fill="#000000" d="M 805.273438 535.84375 C 803.785156 535.84375 802.269531 535.671875 800.808594 535.875 C 795.960938 536.546875 791.1875 536.207031 786.488281 534.984375 C 782.773438 534.011719 779.203125 534.671875 775.734375 535.828125 C 767.359375 538.617188 758.773438 540.4375 750.0625 541.6875 C 740.207031 543.097656 730.527344 541.953125 721 539.351562 C 719.28125 538.882812 717.585938 537.992188 716.136719 536.9375 C 713.953125 535.351562 711.609375 534.929688 709.074219 535.285156 C 706.777344 535.609375 704.457031 535.941406 702.238281 536.585938 C 695.347656 538.589844 688.230469 539.199219 681.175781 540.234375 C 673.253906 541.394531 665.265625 541.570312 657.332031 541.085938 C 649.90625 540.628906 642.523438 539.378906 635.144531 538.320312 C 631.046875 537.730469 627.015625 536.683594 622.917969 536.097656 C 618.789062 535.503906 614.664062 535.964844 610.523438 536.472656 C 598.003906 538.011719 585.546875 539.011719 572.886719 536.824219 C 558.074219 534.261719 543.925781 529.683594 529.917969 524.527344 C 522.277344 521.71875 514.582031 519.171875 506.648438 517.355469 C 502.429688 516.390625 498.316406 515.164062 494.414062 513.257812 C 491.542969 511.859375 488.515625 511.28125 485.285156 511.171875 C 479.433594 510.976562 473.605469 510.191406 468.910156 506.253906 C 466.390625 504.140625 463.976562 501.769531 462.042969 499.128906 C 458.691406 494.558594 454.515625 491.070312 449.3125 489.136719 C 442.351562 486.550781 436.433594 482.359375 430.53125 478.074219 C 425.546875 474.453125 421.953125 469.882812 420.324219 463.800781 C 419.511719 460.765625 418.230469 457.855469 417.105469 454.910156 C 414.800781 448.875 414.050781 442.714844 415.425781 436.34375 C 415.703125 435.046875 415.714844 433.691406 416.015625 432.40625 C 416.695312 429.507812 416.296875 426.734375 414.878906 424.210938 C 412.347656 419.710938 412.175781 415.078125 413.585938 410.25 C 413.957031 408.976562 414.164062 407.652344 414.558594 406.390625 C 416.128906 401.394531 416.765625 396.457031 415.085938 391.273438 C 414.515625 389.519531 414.722656 387.222656 415.328125 385.429688 C 416.863281 380.871094 418.742188 376.371094 422.070312 372.769531 C 427.636719 366.75 429.578125 359.496094 428.933594 351.628906 C 428.261719 343.417969 431.109375 336.726562 436.273438 330.675781 C 442.207031 323.726562 449.761719 318.964844 457.582031 314.515625 C 461.320312 312.386719 464.984375 310.125 468.664062 307.886719 C 476.546875 303.082031 484.917969 299.683594 494.214844 298.914062 C 504.460938 298.066406 514.652344 296.875 524.613281 294.171875 C 527.996094 293.253906 531.433594 292.765625 534.953125 292.984375 C 543.085938 293.496094 550.367188 290.933594 556.960938 286.453125 C 564.035156 281.644531 571.917969 278.601562 579.765625 275.488281 C 581.726562 274.710938 583.980469 274.6875 586.097656 274.292969 C 589.507812 273.65625 592.914062 272.984375 596.328125 272.351562 C 599.425781 271.773438 602.507812 271.109375 605.625 270.695312 C 613.359375 269.664062 621.109375 268.703125 628.9375 269.019531 C 631.746094 269.132812 634.546875 269.578125 637.359375 269.652344 C 642.492188 269.792969 647.699219 270.335938 652.742188 269.679688 C 660.519531 268.671875 667.933594 269.566406 675.335938 271.753906 C 678.832031 272.789062 682.347656 273.78125 685.902344 274.582031 C 693.148438 276.21875 700.339844 276.292969 707.484375 273.769531 C 716.132812 270.714844 725.132812 271.09375 734.09375 271.542969 C 741.382812 271.90625 748.664062 272.410156 755.941406 272.90625 C 759.246094 273.128906 762.554688 273.371094 765.832031 273.8125 C 770.144531 274.398438 774.445312 274.535156 778.722656 273.761719 C 783.15625 272.964844 787.582031 272.363281 792.074219 273.046875 C 794.675781 273.441406 796.945312 272.441406 799.308594 271.660156 C 802.761719 270.519531 806.214844 269.339844 809.742188 268.476562 C 815.136719 267.152344 820.230469 267.628906 824.777344 271.355469 C 826.550781 272.808594 828.683594 273.878906 830.769531 274.871094 C 833.636719 276.230469 836.648438 276.785156 839.921875 276.652344 C 843.875 276.492188 847.867188 276.847656 851.816406 277.246094 C 854.972656 277.566406 857.855469 278.699219 860.523438 280.613281 C 865.246094 284.007812 870.476562 285.066406 876.050781 282.804688 C 881.03125 280.777344 886.320312 280.179688 891.558594 279.402344 C 895.585938 278.800781 899.574219 279.296875 903.222656 281.105469 C 909.308594 284.128906 915.367188 287.222656 921.277344 290.566406 C 925.902344 293.1875 930.503906 294.742188 935.953125 293.726562 C 943.195312 292.378906 949.628906 294.453125 954.183594 300.324219 C 957.855469 305.066406 962.804688 307.398438 968.054688 309.539062 C 970.8125 310.660156 973.558594 311.84375 976.191406 313.226562 C 979.191406 314.804688 981.441406 317.101562 982.867188 320.332031 C 984.472656 323.980469 987.15625 326.445312 991.402344 327.101562 C 997.671875 328.0625 1001.617188 332.324219 1004.699219 337.4375 C 1008.652344 344 1010.03125 351.3125 1010.410156 358.859375 C 1010.46875 360.019531 1010.433594 361.183594 1010.5 362.34375 C 1010.710938 366.15625 1011.960938 369.5 1015.050781 371.925781 C 1018.167969 374.371094 1020.046875 377.636719 1021.445312 381.253906 C 1025.183594 390.933594 1027.453125 400.910156 1027.398438 411.335938 C 1027.390625 412.984375 1027.183594 414.640625 1026.949219 416.277344 C 1025.632812 425.527344 1023.066406 434.433594 1019.4375 443.03125 C 1018.261719 445.8125 1017.359375 448.589844 1017.414062 451.667969 C 1017.4375 452.964844 1017.171875 454.351562 1016.679688 455.550781 C 1014.074219 461.914062 1010.988281 467.945312 1004.617188 471.472656 C 1000.703125 473.640625 996.875 475.980469 992.863281 477.957031 C 987.402344 480.652344 982.789062 484.179688 979.199219 489.203125 C 974.222656 496.164062 967.453125 500.8125 959.300781 503.445312 C 950.128906 506.410156 940.789062 508.640625 931.25 510.042969 C 923.167969 511.230469 915.402344 513.574219 907.824219 516.582031 C 904.742188 517.804688 901.65625 519.019531 898.554688 520.1875 C 895.113281 521.480469 891.570312 522.164062 887.871094 522.308594 C 882.226562 522.527344 876.667969 523.28125 871.257812 525.136719 C 865.285156 527.1875 859.089844 528.285156 852.820312 529.164062 C 846.921875 529.988281 841.078125 531.304688 835.277344 532.675781 C 826.867188 534.664062 818.488281 536.691406 809.746094 536.277344 C 808.257812 536.207031 806.765625 536.269531 805.273438 536.269531 C 805.273438 536.125 805.273438 535.984375 805.273438 535.84375 Z M 1010.828125 374.867188 C 1010.460938 376.683594 1010.144531 378.304688 1009.800781 379.917969 C 1009.574219 380.976562 1009.046875 381.808594 1007.820312 381.691406 C 1006.554688 381.574219 1006.355469 380.507812 1006.226562 379.511719 C 1006.117188 378.695312 1006.074219 377.855469 1006.101562 377.03125 C 1006.304688 370.570312 1006.113281 364.125 1005.804688 357.671875 C 1005.496094 351.238281 1004.046875 345.179688 1000.777344 339.636719 C 998.539062 335.84375 995.722656 332.425781 991.089844 331.703125 C 985.289062 330.796875 981.410156 327.523438 978.933594 322.511719 C 977.601562 319.8125 975.703125 317.910156 973.113281 316.640625 C 970.882812 315.546875 968.589844 314.582031 966.285156 313.65625 C 960.714844 311.414062 955.289062 308.996094 951.425781 304.082031 C 950.507812 302.917969 949.332031 301.949219 948.234375 300.9375 C 946.203125 299.066406 943.804688 298.023438 941.023438 298.019531 C 939.203125 298.015625 937.308594 297.824219 935.570312 298.234375 C 929.773438 299.613281 924.800781 297.484375 919.902344 294.910156 C 914.179688 291.90625 908.480469 288.859375 902.789062 285.789062 C 899.453125 283.988281 895.894531 283.433594 892.183594 283.871094 C 886.75 284.515625 881.355469 285.238281 876.332031 287.765625 C 873.835938 289.019531 871.078125 289.847656 868.355469 290.515625 C 865.792969 291.140625 863.128906 291.390625 860.492188 291.59375 C 859.839844 291.644531 858.800781 291.011719 858.53125 290.425781 C 858.28125 289.882812 858.714844 288.917969 859.054688 288.25 C 859.445312 287.488281 860.886719 287.566406 860.808594 286.480469 C 855.898438 281.707031 849.871094 280.941406 843.617188 280.945312 C 842.289062 280.945312 840.957031 280.960938 839.632812 281.070312 C 835.53125 281.410156 831.703125 280.417969 828.121094 278.542969 C 825.632812 277.238281 823.25 275.710938 820.894531 274.167969 C 818.578125 272.652344 816.074219 271.789062 813.359375 272.289062 C 810.269531 272.855469 807.121094 273.441406 804.210938 274.570312 C 799.226562 276.5 794.429688 278.105469 788.828125 277.277344 C 785.339844 276.765625 781.589844 277.84375 777.988281 278.402344 C 774.007812 279.019531 770.09375 278.917969 766.105469 278.367188 C 761.679688 277.753906 757.203125 277.492188 752.738281 277.246094 C 748.101562 276.988281 743.394531 277.328125 738.820312 276.6875 C 732.019531 275.734375 725.238281 275.886719 718.445312 276.148438 C 714.511719 276.296875 710.652344 277.113281 706.542969 279.273438 C 709.496094 281.210938 712.453125 281.695312 715.074219 282.898438 C 716.425781 283.519531 717.917969 283.859375 719.207031 284.578125 C 719.800781 284.910156 720.414062 285.871094 720.386719 286.515625 C 720.332031 287.664062 719.234375 288.171875 718.199219 287.996094 C 716.253906 287.667969 714.324219 287.191406 712.425781 286.640625 C 708.929688 285.621094 705.492188 284.398438 701.976562 283.457031 C 693.015625 281.046875 683.984375 278.886719 675.054688 276.363281 C 667.613281 274.257812 660.144531 273.148438 652.445312 274.320312 C 647.976562 275 643.527344 274.820312 639.050781 274.34375 C 634.929688 273.90625 630.769531 273.234375 626.660156 273.414062 C 619.375 273.734375 612.105469 274.542969 604.84375 275.3125 C 602.386719 275.570312 599.988281 276.335938 597.554688 276.839844 C 594.3125 277.511719 591.070312 278.171875 587.820312 278.792969 C 586.355469 279.074219 584.824219 279.085938 583.40625 279.5 C 572.636719 282.640625 562.695312 287.328125 554.082031 294.734375 C 550.324219 297.960938 546.050781 300.59375 541.988281 303.460938 C 541.316406 303.933594 540.5625 304.390625 539.78125 304.570312 C 539.234375 304.695312 538.257812 304.523438 538.039062 304.148438 C 537.6875 303.550781 537.464844 302.457031 537.789062 301.964844 C 538.65625 300.652344 539.84375 299.550781 541.21875 298.011719 C 536.375 297.644531 532.097656 297.332031 527.847656 298.214844 C 522.65625 299.292969 517.496094 300.539062 512.300781 301.597656 C 510.03125 302.058594 507.707031 302.292969 505.398438 302.519531 C 501.769531 302.875 498.128906 303.148438 494.492188 303.441406 C 487.242188 304.027344 480.371094 306.316406 474.308594 310.007812 C 467.652344 314.066406 460.800781 317.773438 454.183594 321.882812 C 452.632812 322.847656 451.109375 323.851562 449.597656 324.878906 C 445.171875 327.890625 441.226562 331.464844 438.058594 335.773438 C 434.949219 339.996094 432.964844 344.613281 433.511719 350.128906 C 433.800781 353.070312 433.558594 356.101562 433.277344 359.0625 C 432.757812 364.511719 431.980469 369.929688 431.410156 375.371094 C 431.097656 378.335938 430.976562 381.324219 430.792969 384.304688 C 430.726562 385.351562 430.527344 386.316406 429.324219 386.570312 C 428.273438 386.789062 426.976562 385.902344 426.78125 384.6875 C 426.570312 383.386719 426.589844 382.046875 426.535156 380.722656 C 426.46875 379.179688 426.96875 377.585938 426.367188 375.632812 C 424.007812 377.097656 423.324219 379.167969 422.273438 380.96875 C 419.828125 385.167969 418.847656 389.457031 420.394531 394.300781 C 421.304688 397.15625 421.007812 400.175781 420.132812 403.140625 C 419.144531 406.476562 418.503906 409.914062 417.609375 413.277344 C 416.886719 415.984375 417.117188 418.542969 418.46875 420.980469 C 421.027344 425.585938 421.289062 430.417969 420.0625 435.453125 C 418.4375 442.140625 419.238281 448.605469 421.90625 454.921875 C 423.0625 457.667969 423.996094 460.519531 424.882812 463.367188 C 426.003906 466.96875 427.917969 469.964844 430.917969 472.28125 C 437.214844 477.148438 443.285156 482.375 451.109375 484.777344 C 451.738281 484.972656 452.359375 485.246094 452.933594 485.570312 C 457.433594 488.113281 461.949219 490.753906 464.789062 495.210938 C 469.785156 503.042969 476.789062 506.84375 486.027344 506.769531 C 489.738281 506.738281 493.183594 507.886719 496.582031 509.34375 C 499.308594 510.507812 502.160156 511.417969 505.011719 512.246094 C 511.851562 514.234375 518.785156 515.929688 525.570312 518.085938 C 532.679688 520.34375 539.660156 523.003906 546.695312 525.492188 C 558.964844 529.828125 571.628906 532.335938 584.550781 533.609375 C 591.035156 534.25 597.402344 533.195312 604.101562 532.511719 C 604.347656 526.539062 604.578125 520.917969 604.820312 515.296875 C 604.882812 513.808594 604.894531 512.304688 605.121094 510.835938 C 605.242188 510.066406 605.648438 509.230469 606.183594 508.675781 C 606.539062 508.308594 607.378906 508.238281 607.957031 508.332031 C 608.320312 508.386719 608.785156 508.941406 608.875 509.347656 C 609.050781 510.144531 609.027344 510.992188 609.027344 511.816406 C 609.023438 514.472656 608.984375 517.128906 608.96875 519.789062 C 608.957031 521.78125 608.949219 523.773438 608.945312 525.765625 C 608.941406 527.71875 608.945312 529.671875 608.945312 531.765625 C 609.667969 531.765625 610.308594 531.863281 610.914062 531.753906 C 615.867188 530.859375 620.8125 530.875 625.761719 531.800781 C 632.765625 533.113281 639.769531 534.445312 646.785156 535.707031 C 654.671875 537.121094 662.722656 537.359375 670.609375 536.777344 C 680.664062 536.039062 690.777344 535 700.585938 532.25 C 703.289062 531.492188 706.105469 531.125 708.890625 530.703125 C 712.292969 530.191406 715.460938 530.785156 718.363281 532.808594 C 719.707031 533.742188 721.195312 534.664062 722.757812 535.054688 C 730.511719 536.992188 738.367188 538.285156 746.40625 537.394531 C 755.332031 536.40625 764.082031 534.59375 772.667969 531.917969 C 775.339844 531.085938 778.152344 530.695312 780.90625 530.128906 C 781.832031 529.9375 782.777344 529.835938 783.980469 529.652344 C 784.074219 526.585938 784.054688 523.777344 784.289062 520.992188 C 784.421875 519.375 784.875 517.761719 785.398438 516.222656 C 785.542969 515.796875 786.503906 515.355469 787.011719 515.433594 C 787.503906 515.507812 788.238281 516.207031 788.277344 516.683594 C 788.449219 518.660156 788.40625 520.65625 788.429688 522.644531 C 788.453125 525.253906 788.003906 527.882812 788.5625 530.824219 C 791.773438 531.269531 794.796875 531.773438 797.988281 531.53125 C 800.941406 531.300781 803.933594 531.550781 806.90625 531.582031 C 810.050781 531.617188 813.21875 531.917969 816.328125 531.605469 C 820.441406 531.199219 824.53125 530.40625 828.59375 529.601562 C 836.5625 528.027344 844.46875 526.117188 852.46875 524.75 C 859.519531 523.546875 866.453125 522.042969 873.296875 519.960938 C 876.28125 519.050781 879.449219 518.417969 882.5625 518.300781 C 889.796875 518.035156 896.703125 516.648438 903.261719 513.558594 C 904.609375 512.921875 906.015625 512.398438 907.402344 511.851562 C 915.464844 508.683594 923.78125 506.472656 932.355469 505.253906 C 941.25 503.988281 949.917969 501.75 958.441406 498.976562 C 965.417969 496.703125 971.265625 492.621094 975.480469 486.597656 C 979.410156 480.980469 984.511719 477.015625 990.582031 473.996094 C 994.878906 471.859375 999.144531 469.550781 1003.089844 466.835938 C 1008.65625 463.007812 1011.941406 457.515625 1012.78125 450.753906 C 1013.152344 447.765625 1013.707031 444.882812 1014.929688 442.105469 C 1016.066406 439.527344 1017.03125 436.875 1018.015625 434.230469 C 1020.226562 428.300781 1021.730469 422.164062 1022.558594 415.910156 C 1023.898438 405.804688 1021.714844 396.09375 1018.648438 386.550781 C 1017.9375 384.34375 1017.015625 382.191406 1015.992188 380.113281 C 1014.894531 377.886719 1013.476562 375.867188 1010.828125 374.867188 Z M 1010.828125 374.867188 " fill-opacity="1" fill-rule="nonzero"/></g><path fill="#000000" d="M 852.597656 473.164062 C 847.804688 473.269531 843.996094 473.882812 840.945312 476.984375 C 838.726562 479.238281 835.730469 479.925781 832.753906 480.199219 C 824.652344 480.949219 816.554688 481.527344 808.4375 480.058594 C 801.894531 478.871094 795.476562 479.960938 789.492188 482.648438 C 783.75 485.226562 777.828125 486.320312 771.625 486.339844 C 765.15625 486.363281 758.703125 486.160156 752.261719 487.25 C 749.359375 487.738281 746.300781 487.566406 743.332031 487.375 C 733.691406 486.75 724.226562 484.917969 715.011719 482.121094 C 707.894531 479.960938 701.003906 479.933594 694.007812 482.238281 C 692.433594 482.753906 690.789062 483.046875 689.207031 483.535156 C 681.601562 485.878906 674.109375 484.878906 666.652344 482.824219 C 665.71875 482.566406 664.761719 482.160156 663.996094 481.582031 C 663.558594 481.253906 663.210938 480.390625 663.316406 479.867188 C 663.421875 479.351562 664.128906 478.617188 664.613281 478.585938 C 665.902344 478.496094 667.230469 478.644531 668.519531 478.855469 C 670.972656 479.257812 673.390625 479.925781 675.855469 480.203125 C 680.523438 480.730469 685.101562 480.191406 689.613281 478.78125 C 692.773438 477.796875 696.015625 477.0625 699.253906 476.355469 C 704.0625 475.308594 708.847656 475.722656 713.53125 477.070312 C 723.4375 479.921875 733.472656 482.109375 743.757812 482.976562 C 746.054688 483.171875 748.4375 483.324219 750.6875 482.941406 C 757.109375 481.851562 763.558594 481.601562 770.039062 481.738281 C 776.425781 481.875 782.484375 480.847656 788.414062 478.191406 C 795.542969 475 803.179688 474.585938 810.878906 475.746094 C 818.160156 476.847656 825.421875 476.585938 832.695312 475.617188 C 835.085938 475.296875 837.160156 474.460938 838.875 472.730469 C 840.816406 470.773438 843.261719 469.890625 845.914062 469.285156 C 853.976562 467.453125 862.074219 467.621094 870.167969 468.796875 C 874.164062 469.378906 878.027344 469.230469 882.027344 468.617188 C 890.589844 467.304688 898.984375 465.324219 907.125 462.480469 C 914.628906 459.855469 921.964844 456.734375 929.273438 453.589844 C 936.429688 450.515625 943.453125 447.125 950.546875 443.902344 C 951.597656 443.425781 952.699219 442.914062 953.816406 442.792969 C 954.449219 442.726562 955.503906 443.273438 955.742188 443.816406 C 955.992188 444.375 955.714844 445.519531 955.246094 445.964844 C 954.300781 446.863281 953.121094 447.5625 951.949219 448.164062 C 948.257812 450.050781 944.601562 452.03125 940.796875 453.664062 C 931.039062 457.84375 921.308594 462.109375 911.386719 465.855469 C 903.480469 468.839844 895.273438 470.988281 886.898438 472.351562 C 886.40625 472.433594 885.894531 472.410156 885.417969 472.535156 C 878.855469 474.277344 872.257812 473.816406 865.660156 472.820312 C 863.039062 472.421875 860.433594 472.269531 857.488281 472.746094 C 857.078125 476.144531 856.707031 479.402344 856.285156 482.65625 C 855.925781 485.453125 855.597656 488.257812 855.066406 491.023438 C 854.945312 491.664062 854.144531 492.523438 853.527344 492.644531 C 852.4375 492.863281 851.589844 492.015625 851.503906 490.933594 C 851.386719 489.460938 851.496094 487.957031 851.597656 486.472656 C 851.894531 482.203125 852.238281 477.933594 852.597656 473.164062 Z M 852.597656 473.164062 " fill-opacity="1" fill-rule="nonzero"/><path fill="#000000" d="M 486.886719 454.453125 C 486.332031 458.484375 486.566406 462.121094 486.390625 465.730469 C 486.300781 467.550781 486.175781 469.371094 485.9375 471.175781 C 485.804688 472.164062 485.382812 473.191406 484.171875 473.269531 C 482.640625 473.367188 482.171875 472.125 482.058594 470.992188 C 481.867188 469.023438 481.859375 467.027344 481.917969 465.046875 C 482.035156 461.074219 482.246094 457.109375 482.425781 452.96875 C 481.214844 452.410156 480.1875 451.957031 479.183594 451.464844 C 476.507812 450.152344 473.738281 448.996094 471.195312 447.457031 C 467.777344 445.390625 464.328125 443.507812 460.515625 442.210938 C 456.753906 440.933594 453.136719 439.234375 449.460938 437.699219 C 445.542969 436.0625 442.363281 433.414062 439.683594 430.1875 C 437.042969 427.007812 435.734375 423.363281 436.179688 419.125 C 436.351562 417.507812 436.097656 415.84375 435.988281 414.203125 C 435.882812 412.71875 435.644531 411.238281 435.59375 409.753906 C 435.558594 408.714844 435.917969 407.679688 437.078125 407.46875 C 438.21875 407.261719 439.039062 408 439.265625 409.050781 C 439.816406 411.636719 440.277344 414.246094 440.660156 416.863281 C 440.800781 417.832031 440.660156 418.851562 440.589844 419.84375 C 440.363281 423.046875 441.601562 425.695312 443.71875 427.964844 C 445.996094 430.410156 448.566406 432.488281 451.738281 433.71875 C 455.914062 435.332031 460.121094 436.875 464.226562 438.652344 C 467.105469 439.898438 469.851562 441.460938 472.636719 442.917969 C 475.574219 444.457031 478.394531 446.25 481.425781 447.558594 C 486.183594 449.617188 491.113281 450.699219 496.4375 450.101562 C 499.6875 449.742188 503.050781 450.148438 506.34375 450.449219 C 509.890625 450.777344 513.089844 452.113281 515.738281 454.589844 C 519.726562 458.3125 524.464844 460.578125 529.742188 461.78125 C 535.074219 462.996094 540.40625 464.21875 545.753906 465.363281 C 554.441406 467.230469 562.816406 469.726562 569.292969 476.335938 C 571.367188 478.453125 573.914062 479.457031 576.875 479.59375 C 581.347656 479.804688 585.816406 480.109375 590.285156 480.375 C 595.746094 480.695312 601.207031 481.070312 606.671875 481.320312 C 612.203125 481.570312 617.558594 480.566406 622.804688 478.839844 C 625.480469 477.957031 628.183594 477.109375 630.925781 476.484375 C 636.03125 475.316406 641.160156 475.898438 646.273438 476.605469 C 646.59375 476.648438 646.914062 476.777344 647.21875 476.90625 C 648.15625 477.300781 649.0625 477.765625 648.96875 479 C 648.878906 480.273438 647.882812 480.636719 646.882812 480.695312 C 645.570312 480.773438 644.238281 480.671875 642.925781 480.550781 C 637.410156 480.039062 631.984375 480.332031 626.746094 482.316406 C 617.703125 485.742188 608.375 486.390625 598.816406 485.5 C 592.539062 484.917969 586.234375 484.585938 579.9375 484.394531 C 574.0625 484.214844 568.871094 482.773438 564.671875 478.34375 C 562.003906 475.53125 558.542969 473.738281 554.875 472.609375 C 550.765625 471.34375 546.542969 470.441406 542.367188 469.394531 C 536.421875 467.902344 530.4375 466.542969 524.535156 464.886719 C 520.503906 463.757812 516.859375 461.667969 513.78125 458.816406 C 510.398438 455.679688 506.378906 454.519531 501.9375 454.464844 C 497.132812 454.40625 492.328125 454.453125 486.886719 454.453125 Z M 486.886719 454.453125 " fill-opacity="1" fill-rule="nonzero"/><path fill="#000000" d="M 779.667969 404.792969 C 780.558594 404.941406 781.730469 405.019531 782.828125 405.34375 C 786.3125 406.371094 789.777344 407.46875 793.230469 408.59375 C 794.003906 408.847656 794.742188 409.257812 795.429688 409.707031 C 796.3125 410.285156 796.847656 411.121094 796.445312 412.222656 C 796.023438 413.359375 795.039062 413.617188 794.015625 413.324219 C 790.523438 412.324219 787.03125 411.304688 783.582031 410.171875 C 779.523438 408.839844 775.714844 409.351562 772.214844 411.671875 C 771.015625 412.46875 770.199219 413.824219 769.09375 414.792969 C 768.660156 415.175781 767.726562 415.539062 767.363281 415.324219 C 766.753906 414.964844 766.101562 414.175781 766.019531 413.503906 C 765.8125 411.738281 766.738281 410.34375 768.046875 409.207031 C 771.304688 406.375 775.1875 405.175781 779.667969 404.792969 Z M 779.667969 404.792969 " fill-opacity="1" fill-rule="nonzero"/><path fill="#000000" d="M 882.785156 387.84375 C 881.714844 387.542969 880.148438 387.019531 878.546875 386.664062 C 875.488281 385.984375 872.433594 385.207031 869.335938 384.820312 C 865.0625 384.28125 861.179688 385.550781 857.621094 387.972656 C 855.585938 389.359375 854.359375 389.394531 853.78125 388.375 C 853.160156 387.28125 853.617188 385.84375 855.167969 384.511719 C 857.480469 382.527344 860.21875 381.25 863.175781 380.78125 C 870.589844 379.613281 877.660156 380.929688 884.367188 384.265625 C 884.660156 384.410156 885.027344 384.582031 885.160156 384.84375 C 885.4375 385.390625 885.84375 386.082031 885.703125 386.574219 C 885.566406 387.058594 884.847656 387.421875 884.324219 387.734375 C 884.074219 387.882812 883.679688 387.792969 882.785156 387.84375 Z M 882.785156 387.84375 " fill-opacity="1" fill-rule="nonzero"/><path fill="#000000" d="M 566.550781 443.511719 C 565.515625 441.480469 564.652344 440.582031 564.796875 439.898438 C 565.09375 438.519531 565.648438 436.980469 566.605469 435.996094 C 571.070312 431.394531 583.742188 429.214844 590.410156 435.128906 C 590.898438 435.558594 591.460938 436.035156 591.671875 436.605469 C 591.871094 437.136719 591.863281 437.984375 591.550781 438.394531 C 591.222656 438.820312 590.355469 439.179688 589.855469 439.050781 C 588.757812 438.769531 587.730469 438.195312 586.703125 437.679688 C 582.464844 435.550781 578.070312 435.796875 573.683594 436.953125 C 571.597656 437.5 569.726562 438.59375 568.527344 440.542969 C 568.097656 441.242188 567.621094 441.910156 566.550781 443.511719 Z M 566.550781 443.511719 " fill-opacity="1" fill-rule="nonzero"/><path fill="#000000" d="M 965.765625 440.539062 C 964.304688 440.484375 963.417969 439.125 963.976562 438.347656 C 964.632812 437.433594 965.375 436.441406 966.320312 435.890625 C 968.164062 434.820312 970.132812 433.929688 972.125 433.148438 C 977.796875 430.914062 983.503906 428.769531 989.203125 426.597656 C 989.820312 426.359375 990.464844 425.984375 991.078125 426.015625 C 991.820312 426.054688 992.792969 426.246094 993.21875 426.75 C 994.003906 427.671875 993.414062 428.679688 992.566406 429.277344 C 991.363281 430.128906 990.105469 430.972656 988.753906 431.535156 C 985.253906 432.984375 981.675781 434.253906 978.148438 435.644531 C 974.777344 436.972656 971.429688 438.371094 968.066406 439.71875 C 967.167969 440.078125 966.246094 440.371094 965.765625 440.539062 Z M 965.765625 440.539062 " fill-opacity="1" fill-rule="nonzero"/><path fill="#000000" d="M 491.4375 368.65625 C 494.894531 368.390625 498.480469 368.820312 501.976562 369.925781 C 502.761719 370.171875 503.609375 370.34375 504.289062 370.769531 C 504.769531 371.074219 505.410156 371.875 505.292969 372.230469 C 505.078125 372.898438 504.429688 373.796875 503.84375 373.894531 C 502.589844 374.109375 501.183594 374.136719 499.980469 373.777344 C 496.265625 372.667969 492.480469 372.886719 488.695312 372.753906 C 484.765625 372.617188 481.5625 373.753906 479.480469 377.296875 C 479.234375 377.714844 478.882812 378.089844 478.519531 378.414062 C 477.605469 379.222656 476.058594 378.644531 475.789062 377.453125 C 475.425781 375.859375 475.976562 374.5 476.917969 373.304688 C 478.9375 370.75 481.550781 369.039062 484.820312 368.699219 C 486.9375 368.476562 489.09375 368.65625 491.4375 368.65625 Z M 491.4375 368.65625 " fill-opacity="1" fill-rule="nonzero"/><path fill="#000000" d="M 497.144531 398.585938 C 499.722656 399.097656 502.171875 399.476562 504.554688 400.109375 C 505.4375 400.34375 506.238281 401.097656 506.945312 401.757812 C 507.644531 402.414062 507.105469 403.996094 506.136719 404.136719 C 505.347656 404.25 504.515625 404.175781 503.710938 404.082031 C 501.746094 403.851562 499.792969 403.539062 497.828125 403.304688 C 495.699219 403.050781 493.976562 403.859375 492.472656 405.339844 C 490.578125 407.199219 488.765625 409.082031 487.652344 411.574219 C 487.425781 412.089844 486.320312 412.488281 485.640625 412.464844 C 484.476562 412.417969 483.945312 411.375 484.003906 410.351562 C 484.054688 409.398438 484.328125 408.34375 484.835938 407.542969 C 486.8125 404.441406 489.316406 401.761719 492.507812 399.921875 C 493.867188 399.136719 495.605469 399.003906 497.144531 398.585938 Z M 497.144531 398.585938 " fill-opacity="1" fill-rule="nonzero"/><path fill="#000000" d="M 653.734375 350.453125 C 656.335938 350.890625 658.972656 351.199219 661.535156 351.804688 C 664.027344 352.398438 666.058594 353.910156 667.507812 356.011719 C 667.84375 356.5 667.652344 357.605469 667.316406 358.214844 C 667.113281 358.578125 666.140625 358.695312 665.550781 358.621094 C 664.925781 358.539062 664.316406 358.152344 663.753906 357.808594 C 658.113281 354.398438 652.167969 354.246094 646.011719 356.066406 C 644.761719 356.4375 643.476562 356.769531 642.183594 356.925781 C 641.21875 357.042969 640.339844 355.488281 640.980469 354.761719 C 641.828125 353.800781 642.828125 352.839844 643.960938 352.300781 C 647.019531 350.84375 650.324219 350.511719 653.734375 350.453125 Z M 653.734375 350.453125 " fill-opacity="1" fill-rule="nonzero"/><path fill="#000000" d="M 548.980469 345.007812 C 547.585938 344.609375 545.550781 343.917969 543.460938 343.449219 C 541.542969 343.019531 539.570312 342.578125 537.625 342.589844 C 534.734375 342.605469 532.101562 343.535156 530.203125 345.960938 C 529.523438 346.828125 528.53125 347.148438 527.589844 346.449219 C 526.710938 345.796875 526.617188 344.804688 526.921875 343.761719 C 527.371094 342.222656 528.4375 341.234375 529.75 340.449219 C 532.359375 338.882812 535.230469 337.902344 538.230469 338 C 542.917969 338.15625 547.316406 339.628906 551.355469 342.03125 C 551.777344 342.285156 552.1875 343.359375 551.992188 343.6875 C 551.636719 344.273438 550.828125 344.59375 550.191406 345 C 550.074219 345.074219 549.867188 345.007812 548.980469 345.007812 Z M 548.980469 345.007812 " fill-opacity="1" fill-rule="nonzero"/><path fill="#000000" d="M 812.402344 312.695312 C 814.875 313.257812 818.90625 314.171875 822.933594 315.105469 C 823.246094 315.175781 823.660156 315.304688 823.804688 315.542969 C 824.195312 316.195312 824.699219 316.921875 824.699219 317.621094 C 824.699219 318.027344 823.835938 318.746094 823.328125 318.777344 C 821.855469 318.867188 820.347656 318.789062 818.886719 318.570312 C 817.25 318.328125 815.640625 317.898438 814.039062 317.472656 C 810.511719 316.53125 807.15625 316.90625 803.910156 318.578125 C 802.894531 319.101562 801.796875 319.550781 800.6875 319.753906 C 800.203125 319.84375 799.367188 319.363281 799.097656 318.90625 C 798.835938 318.457031 798.859375 317.546875 799.160156 317.121094 C 799.714844 316.332031 800.484375 315.628906 801.296875 315.105469 C 804.175781 313.253906 807.371094 312.519531 812.402344 312.695312 Z M 812.402344 312.695312 " fill-opacity="1" fill-rule="nonzero"/><path fill="#000000" d="M 783.246094 365 C 788.054688 365.164062 792.242188 366.820312 795.726562 370.167969 C 796.082031 370.507812 796.589844 370.839844 796.695312 371.257812 C 796.882812 371.972656 797.023438 372.84375 796.761719 373.472656 C 796.605469 373.839844 795.53125 374.15625 795.046875 373.988281 C 793.824219 373.554688 792.714844 372.808594 791.539062 372.234375 C 789.917969 371.445312 788.34375 370.414062 786.625 369.992188 C 783.390625 369.199219 780.105469 369.074219 777.039062 370.875 C 776.34375 371.28125 775.558594 371.679688 774.785156 371.746094 C 774.25 371.796875 773.550781 371.386719 773.140625 370.972656 C 772.886719 370.71875 772.828125 369.878906 773.050781 369.617188 C 773.988281 368.515625 774.925781 367.316406 776.121094 366.554688 C 778.257812 365.199219 780.738281 364.90625 783.246094 365 Z M 783.246094 365 " fill-opacity="1" fill-rule="nonzero"/><path fill="#000000" d="M 665.589844 309.730469 C 664.644531 309.824219 663.671875 310.128906 662.78125 309.96875 C 660.996094 309.65625 659.25 309.117188 657.503906 308.617188 C 653.167969 307.375 649.023438 307.375 645.257812 310.292969 C 644.324219 311.015625 643.285156 311.65625 642.164062 310.695312 C 641.332031 309.976562 641.433594 308.210938 642.691406 307.171875 C 644.183594 305.9375 645.867188 304.683594 647.679688 304.140625 C 653.558594 302.375 659.109375 303.800781 664.390625 306.574219 C 665.238281 307.019531 665.257812 307.246094 665.589844 309.730469 Z M 665.589844 309.730469 " fill-opacity="1" fill-rule="nonzero"/><path fill="#000000" d="M 943.382812 353.8125 C 945.28125 354.25 948.5 354.925781 951.683594 355.75 C 952.601562 355.988281 953.507812 356.550781 954.21875 357.183594 C 954.613281 357.535156 954.84375 358.433594 954.683594 358.933594 C 954.527344 359.417969 953.765625 360.046875 953.285156 360.03125 C 951.816406 359.988281 950.351562 359.6875 948.890625 359.449219 C 947.105469 359.160156 945.335938 358.730469 943.539062 358.546875 C 940.714844 358.257812 937.925781 358.375 935.394531 359.949219 C 934.839844 360.292969 934.1875 360.683594 933.585938 360.675781 C 932.835938 360.667969 931.769531 360.484375 931.4375 359.984375 C 931.125 359.511719 931.324219 358.304688 931.75 357.800781 C 934.421875 354.644531 938.074219 353.851562 943.382812 353.8125 Z M 943.382812 353.8125 " fill-opacity="1" fill-rule="nonzero"/><path fill="#000000" d="M 902.746094 417.054688 C 904.726562 417.222656 906.714844 417.308594 908.675781 417.578125 C 910.578125 417.839844 912.046875 418.90625 913.074219 420.527344 C 913.550781 421.285156 913.6875 422.167969 912.929688 422.773438 C 912.484375 423.125 911.609375 423.457031 911.195312 423.253906 C 904.953125 420.214844 898.964844 421.6875 893.003906 424.105469 C 892.695312 424.230469 892.371094 424.480469 892.085938 424.445312 C 891.476562 424.367188 890.679688 424.316406 890.339844 423.925781 C 889.984375 423.519531 889.898438 422.691406 890.011719 422.105469 C 890.320312 420.46875 891.578125 419.503906 893.003906 419.039062 C 895.035156 418.378906 897.160156 417.972656 899.265625 417.566406 C 900.398438 417.34375 901.578125 417.351562 902.734375 417.253906 C 902.738281 417.1875 902.742188 417.121094 902.746094 417.054688 Z M 902.746094 417.054688 " fill-opacity="1" fill-rule="nonzero"/><path fill="#000000" d="M 652.089844 424.5 C 653.027344 424.753906 655.121094 425.199219 657.117188 425.90625 C 658 426.21875 658.878906 426.933594 659.40625 427.710938 C 659.792969 428.277344 659.8125 429.304688 659.582031 429.992188 C 659.457031 430.363281 658.484375 430.554688 657.871094 430.628906 C 657.414062 430.6875 656.890625 430.496094 656.4375 430.3125 C 651.835938 428.433594 647.417969 428.652344 643.199219 431.398438 C 642.925781 431.574219 642.609375 431.707031 642.300781 431.8125 C 640.941406 432.289062 639.457031 431.03125 639.964844 429.660156 C 640.335938 428.65625 641.050781 427.554688 641.929688 427.011719 C 644.640625 425.335938 647.667969 424.523438 652.089844 424.5 Z M 652.089844 424.5 " fill-opacity="1" fill-rule="nonzero"/><path fill="#000000" d="M 726.503906 450.070312 C 724.90625 450.527344 723.179688 450.976562 721.480469 451.515625 C 720.707031 451.761719 720.011719 452.335938 719.234375 452.460938 C 718.675781 452.550781 717.710938 452.308594 717.519531 451.917969 C 717.214844 451.308594 717.117188 450.253906 717.457031 449.742188 C 718.070312 448.828125 718.953125 447.914062 719.9375 447.464844 C 725.421875 444.960938 730.796875 445.5625 736 448.394531 C 736.398438 448.613281 736.6875 449.082031 736.96875 449.476562 C 737.535156 450.277344 736.894531 451.746094 735.90625 451.71875 C 734.609375 451.683594 733.316406 451.441406 732.035156 451.207031 C 730.269531 450.886719 728.515625 450.488281 726.503906 450.070312 Z M 726.503906 450.070312 " fill-opacity="1" fill-rule="nonzero"/><path fill="#000000" d="M 1006.3125 398.667969 C 1004.902344 403.320312 1003.296875 408.207031 1000.289062 412.457031 C 999.671875 413.332031 998.578125 413.957031 997.582031 414.445312 C 996.722656 414.863281 995.550781 413.644531 995.773438 412.703125 C 995.851562 412.382812 995.949219 412.066406 996.082031 411.769531 C 998.058594 407.21875 1000.039062 402.675781 1002.019531 398.128906 C 1002.21875 397.671875 1002.394531 397.207031 1002.59375 396.753906 C 1003.054688 395.71875 1003.867188 395.144531 1004.953125 395.503906 C 1006 395.847656 1006.390625 396.796875 1006.378906 397.882812 C 1006.378906 398.046875 1006.351562 398.210938 1006.3125 398.667969 Z M 1006.3125 398.667969 " fill-opacity="1" fill-rule="nonzero"/><path fill="#000000" d="M 717.421875 361.871094 C 721.246094 362.058594 723.933594 362.859375 726.328125 364.414062 C 726.847656 364.753906 727.285156 365.921875 727.085938 366.464844 C 726.882812 367.019531 725.855469 367.582031 725.1875 367.582031 C 724.0625 367.582031 722.941406 367.09375 721.804688 366.898438 C 718.835938 366.390625 715.90625 365.96875 713.355469 368.324219 C 712.902344 368.742188 711.710938 368.8125 711.113281 368.523438 C 710.113281 368.035156 709.949219 366.835938 710.460938 365.929688 C 711.003906 364.96875 711.75 363.878906 712.683594 363.433594 C 714.441406 362.601562 716.394531 362.191406 717.421875 361.871094 Z M 717.421875 361.871094 " fill-opacity="1" fill-rule="nonzero"/><path fill="#000000" d="M 891.488281 320.785156 C 888.773438 320.664062 886.226562 321.191406 883.699219 322.128906 C 883.121094 322.34375 881.917969 321.976562 881.597656 321.484375 C 881.277344 320.992188 881.429688 319.746094 881.859375 319.308594 C 882.75 318.398438 883.875 317.484375 885.066406 317.140625 C 889.679688 315.8125 894.242188 316.375 898.667969 318.105469 C 899.660156 318.492188 900.378906 319.398438 899.8125 320.445312 C 899.5 321.019531 898.519531 321.589844 897.871094 321.554688 C 895.734375 321.445312 893.613281 321.0625 891.488281 320.785156 Z M 891.488281 320.785156 " fill-opacity="1" fill-rule="nonzero"/><path fill="#000000" d="M 491.628906 340.769531 C 491.210938 341.144531 490.800781 341.832031 490.324219 341.882812 C 489.382812 341.980469 488.328125 341.925781 487.457031 341.582031 C 484.511719 340.429688 482.003906 341.066406 479.726562 343.097656 C 479.480469 343.316406 479.257812 343.5625 478.996094 343.757812 C 478.199219 344.363281 477.375 344.960938 476.347656 344.242188 C 475.46875 343.621094 475.296875 342.257812 475.914062 341.121094 C 478.550781 336.277344 487.28125 335.144531 490.964844 339.195312 C 491.269531 339.53125 491.347656 340.078125 491.628906 340.769531 Z M 491.628906 340.769531 " fill-opacity="1" fill-rule="nonzero"/><path fill="#000000" d="M 951.117188 479.425781 C 951.117188 477.613281 951.019531 475.792969 951.15625 473.992188 C 951.226562 473.039062 951.5625 472.035156 952.050781 471.214844 C 952.3125 470.78125 953.179688 470.453125 953.722656 470.511719 C 954.265625 470.574219 955.015625 471.078125 955.199219 471.5625 C 955.535156 472.457031 955.6875 473.496094 955.621094 474.453125 C 955.363281 478.066406 955.011719 481.675781 954.640625 485.28125 C 954.535156 486.308594 954.085938 487.21875 952.855469 487.253906 C 951.601562 487.292969 951.082031 486.382812 951.027344 485.359375 C 950.921875 483.386719 950.996094 481.40625 950.996094 479.425781 C 951.035156 479.425781 951.078125 479.425781 951.117188 479.425781 Z M 951.117188 479.425781 " fill-opacity="1" fill-rule="nonzero"/><path fill="#000000" d="M 655.070312 508.136719 C 654.933594 511.226562 654.886719 513.210938 654.738281 515.1875 C 654.679688 515.992188 654.558594 516.871094 654.175781 517.550781 C 653.90625 518.023438 653.125 518.476562 652.601562 518.449219 C 652.089844 518.421875 651.433594 517.871094 651.164062 517.375 C 650.867188 516.835938 650.882812 516.09375 650.875 515.441406 C 650.816406 512.136719 650.714844 508.828125 650.796875 505.527344 C 650.828125 504.246094 651.121094 502.898438 651.636719 501.730469 C 651.894531 501.152344 652.980469 500.550781 653.585938 500.640625 C 654.152344 500.722656 654.957031 501.6875 655 502.3125 C 655.171875 504.613281 655.070312 506.933594 655.070312 508.136719 Z M 655.070312 508.136719 " fill-opacity="1" fill-rule="nonzero"/><path fill="#000000" d="M 564.640625 376.675781 C 564.929688 376.757812 566.378906 377.042969 567.71875 377.605469 C 568.140625 377.78125 568.527344 378.742188 568.433594 379.25 C 568.339844 379.761719 567.660156 380.207031 567.164062 380.582031 C 566.933594 380.757812 566.519531 380.761719 566.199219 380.734375 C 562.730469 380.476562 559.636719 381.347656 556.996094 383.683594 C 556.753906 383.894531 556.429688 384.101562 556.125 384.132812 C 555.664062 384.179688 554.988281 384.25 554.757812 383.992188 C 554.355469 383.546875 553.875 382.710938 554.046875 382.300781 C 554.542969 381.128906 555.140625 379.84375 556.078125 379.046875 C 558.152344 377.28125 560.679688 376.46875 564.640625 376.675781 Z M 564.640625 376.675781 " fill-opacity="1" fill-rule="nonzero"/><path fill="#000000" d="M 527.578125 402.292969 C 527.027344 402.769531 526.625 403.347656 526.097656 403.503906 C 525.515625 403.675781 524.75 403.621094 524.183594 403.378906 C 521.972656 402.441406 519.792969 402.148438 517.4375 402.929688 C 516.855469 403.125 515.765625 402.738281 515.34375 402.242188 C 514.605469 401.378906 514.988281 400.167969 515.8125 399.625 C 517.003906 398.835938 518.40625 398.003906 519.769531 397.910156 C 522.289062 397.742188 524.65625 398.621094 526.527344 400.441406 C 526.964844 400.867188 527.160156 401.539062 527.578125 402.292969 Z M 527.578125 402.292969 " fill-opacity="1" fill-rule="nonzero"/><path fill="#000000" d="M 511.472656 483.4375 C 511.277344 484.976562 510.984375 487.421875 510.652344 489.867188 C 510.507812 490.957031 509.890625 491.863281 508.75 491.585938 C 508.160156 491.445312 507.371094 490.496094 507.347656 489.890625 C 507.246094 487.101562 507.269531 484.296875 507.496094 481.519531 C 507.585938 480.445312 508.257812 479.378906 508.820312 478.398438 C 509.011719 478.0625 509.773438 477.734375 510.09375 477.863281 C 510.628906 478.074219 511.324219 478.601562 511.410156 479.09375 C 511.605469 480.203125 511.472656 481.371094 511.472656 483.4375 Z M 511.472656 483.4375 " fill-opacity="1" fill-rule="nonzero"/><path fill="#000000" d="M 972.457031 396.8125 C 971.449219 396.960938 969.828125 397.25 968.195312 397.425781 C 967.113281 397.542969 966.085938 397.085938 965.980469 395.972656 C 965.921875 395.3125 966.429688 394.316406 966.996094 393.925781 C 969.875 391.933594 972.9375 392.195312 975.890625 393.746094 C 976.441406 394.035156 976.96875 395.164062 976.828125 395.746094 C 976.695312 396.3125 975.746094 396.839844 975.050781 397.0625 C 974.480469 397.25 973.753906 396.964844 972.457031 396.8125 Z M 972.457031 396.8125 " fill-opacity="1" fill-rule="nonzero"/><path fill="#000000" d="M 837.65625 318.820312 C 836.230469 318.554688 834.777344 318.386719 833.390625 317.992188 C 832.425781 317.714844 832.164062 316.195312 832.957031 315.570312 C 833.699219 314.988281 834.574219 314.402344 835.46875 314.222656 C 837.476562 313.828125 839.382812 314.453125 841.007812 315.609375 C 841.546875 315.992188 842.019531 317.050781 841.875 317.644531 C 841.746094 318.179688 840.785156 318.71875 840.101562 318.871094 C 839.347656 319.035156 838.492188 318.765625 837.683594 318.683594 C 837.671875 318.726562 837.664062 318.773438 837.65625 318.820312 Z M 837.65625 318.820312 " fill-opacity="1" fill-rule="nonzero"/><path fill="#000000" d="M 579.890625 379.066406 C 581.347656 379.6875 583.300781 380.433594 585.152344 381.375 C 585.566406 381.585938 585.964844 382.679688 585.769531 383.03125 C 585.429688 383.644531 584.550781 384.460938 584.023438 384.382812 C 581.792969 384.050781 579.574219 383.519531 577.429688 382.820312 C 576.890625 382.648438 576.277344 381.546875 576.351562 380.957031 C 576.425781 380.363281 577.257812 379.789062 577.875 379.375 C 578.230469 379.132812 578.8125 379.210938 579.890625 379.066406 Z M 579.890625 379.066406 " fill-opacity="1" fill-rule="nonzero"/><path fill="#000000" d="M 963.957031 361.3125 C 962.398438 361.3125 961.722656 361.398438 961.078125 361.292969 C 959.96875 361.113281 959.121094 360.285156 959.28125 359.28125 C 959.414062 358.460938 960.1875 357.332031 960.921875 357.09375 C 963.058594 356.394531 965.175781 356.910156 967.023438 358.203125 C 967.359375 358.433594 967.671875 359.121094 967.5625 359.460938 C 967.386719 360.019531 966.949219 360.75 966.464844 360.90625 C 965.386719 361.25 964.210938 361.277344 963.957031 361.3125 Z M 963.957031 361.3125 " fill-opacity="1" fill-rule="nonzero"/><path fill="#000000" d="M 840.167969 507.046875 C 840.160156 507.164062 840.257812 508.21875 839.921875 509.113281 C 839.683594 509.753906 838.886719 510.554688 838.296875 510.589844 C 837.710938 510.625 836.605469 509.84375 836.546875 509.324219 C 836.34375 507.558594 836.371094 505.734375 836.574219 503.964844 C 836.695312 502.929688 837.648438 502.117188 838.71875 502.441406 C 839.324219 502.621094 839.84375 503.523438 840.121094 504.210938 C 840.351562 504.78125 840.167969 505.515625 840.167969 507.046875 Z M 840.167969 507.046875 " fill-opacity="1" fill-rule="nonzero"/><path fill="#000000" d="M 703.394531 508.671875 C 703.210938 510.242188 703.175781 511.746094 702.8125 513.167969 C 702.644531 513.835938 701.917969 514.722656 701.316406 514.835938 C 700.195312 515.046875 699.390625 514.074219 699.394531 513.054688 C 699.40625 511.113281 699.601562 509.148438 699.996094 507.253906 C 700.101562 506.75 701.28125 506.078125 701.855469 506.171875 C 702.441406 506.269531 702.933594 507.183594 703.367188 507.804688 C 703.523438 508.023438 703.394531 508.441406 703.394531 508.671875 Z M 703.394531 508.671875 " fill-opacity="1" fill-rule="nonzero"/><path fill="#000000" d="M 747.234375 453.464844 C 747.496094 453.484375 746.632812 453.5625 745.875 453.320312 C 745.34375 453.148438 744.585938 452.535156 744.585938 452.117188 C 744.582031 451.402344 744.894531 450.425781 745.425781 450.019531 C 747.160156 448.683594 750.171875 448.976562 751.761719 450.578125 C 752.136719 450.957031 752.347656 451.832031 752.179688 452.316406 C 752.007812 452.804688 751.316406 453.285156 750.765625 453.417969 C 749.988281 453.605469 749.136719 453.464844 747.234375 453.464844 Z M 747.234375 453.464844 " fill-opacity="1" fill-rule="nonzero"/></svg>